<svg xmlns="http://www.w3.org/2000/svg" xmlns:xlink="http://www.w3.org/1999/xlink" width="344" height="344" viewBox="0 0 344 344">
  <defs>
    <filter id="Ellipse_10" x="0" y="0" width="344" height="344" filterUnits="userSpaceOnUse">
      <feOffset input="SourceAlpha"/>
      <feGaussianBlur stdDeviation="20" result="blur"/>
      <feFlood flood-color="#ff6767" flood-opacity="0.871"/>
      <feComposite operator="in" in2="blur"/>
      <feComposite in="SourceGraphic"/>
    </filter>
    <linearGradient id="linear-gradient" x1="0.5" y1="0.795" x2="0.5" gradientUnits="objectBoundingBox">
      <stop offset="0" stop-color="#662929"/>
      <stop offset="1" stop-color="#fcc"/>
    </linearGradient>
    <linearGradient id="linear-gradient-2" x1="0.5" y1="0.114" x2="0.5" y2="0.821" gradientUnits="objectBoundingBox">
      <stop offset="0" stop-color="#f66"/>
      <stop offset="1" stop-color="#cc5252"/>
    </linearGradient>
    <filter id="bell-ring-outline">
      <feOffset dy="3" input="SourceAlpha"/>
      <feGaussianBlur stdDeviation="3" result="blur-2"/>
      <feFlood flood-opacity="0.14" result="color"/>
      <feComposite operator="out" in="SourceGraphic" in2="blur-2"/>
      <feComposite operator="in" in="color"/>
      <feComposite operator="in" in2="SourceGraphic"/>
    </filter>
  </defs>
  <g id="Group_3504" data-name="Group 3504" transform="translate(60 60)">
    <g transform="matrix(1, 0, 0, 1, -60, -60)" filter="url(#Ellipse_10)">
      <circle id="Ellipse_10-2" data-name="Ellipse 10" cx="112" cy="112" r="112" transform="translate(60 60)"/>
    </g>
    <circle id="Ellipse_5" data-name="Ellipse 5" cx="96" cy="96" r="96" transform="translate(16 16)" fill="url(#linear-gradient)"/>
    <circle id="Ellipse_11" data-name="Ellipse 11" cx="90" cy="90" r="90" transform="translate(22 22)" fill="url(#linear-gradient-2)"/>
    <path id="Ellipse_6" data-name="Ellipse 6" d="M106,4A102.773,102.773,0,0,0,85.439,6.072,101.419,101.419,0,0,0,48.974,21.418,102.309,102.309,0,0,0,12.014,66.3,101.457,101.457,0,0,0,6.072,85.439a103.033,103.033,0,0,0,0,41.122,101.419,101.419,0,0,0,15.345,36.466A102.309,102.309,0,0,0,66.3,199.986a101.457,101.457,0,0,0,19.141,5.942,103.033,103.033,0,0,0,41.122,0,101.419,101.419,0,0,0,36.466-15.345,102.309,102.309,0,0,0,36.96-44.881,101.457,101.457,0,0,0,5.942-19.141,103.033,103.033,0,0,0,0-41.122,101.419,101.419,0,0,0-15.345-36.466A102.309,102.309,0,0,0,145.7,12.014a101.457,101.457,0,0,0-19.141-5.942A102.773,102.773,0,0,0,106,4m0-4A106,106,0,1,1,0,106,106,106,0,0,1,106,0Z" transform="translate(6 6)" fill="#ff6767"/>
    <g id="Group_3507" data-name="Group 3507" transform="translate(64 64)">
      <g id="Group_3506" data-name="Group 3506">
        <rect id="Rectangle_2340" data-name="Rectangle 2340" width="96" height="96" fill="none"/>
      </g>
      <g data-type="innerShadowGroup">
        <path id="bell-ring-outline-2" data-name="bell-ring-outline" d="M37,78H53a8,8,0,0,1-16,0m44-8v4H9V70l8-8V38A27.96,27.96,0,0,1,37,11.16V10a8,8,0,0,1,16,0v1.16A27.96,27.96,0,0,1,73,38V62l8,8M65,38a20,20,0,1,0-40,0V66H65V38M76,6.76l-5.68,5.68A35.926,35.926,0,0,1,81,38h8A43.844,43.844,0,0,0,76,6.76M1,38H9A35.926,35.926,0,0,1,19.68,12.44L14,6.76A43.844,43.844,0,0,0,1,38Z" transform="translate(3 6)" fill="rgba(255,255,255,0.87)"/>
        <g transform="matrix(1, 0, 0, 1, -124, -124)" filter="url(#bell-ring-outline)">
          <path id="bell-ring-outline-3" data-name="bell-ring-outline" d="M37,78H53a8,8,0,0,1-16,0m44-8v4H9V70l8-8V38A27.96,27.96,0,0,1,37,11.16V10a8,8,0,0,1,16,0v1.16A27.96,27.96,0,0,1,73,38V62l8,8M65,38a20,20,0,1,0-40,0V66H65V38M76,6.76l-5.68,5.68A35.926,35.926,0,0,1,81,38h8A43.844,43.844,0,0,0,76,6.76M1,38H9A35.926,35.926,0,0,1,19.68,12.44L14,6.76A43.844,43.844,0,0,0,1,38Z" transform="translate(127 130)" fill="#fff"/>
        </g>
      </g>
    </g>
  </g>
</svg>
